# xmcd CD database file
#
# Track frame offsets:
#	150
#	7731
#	25350
#	39306
#	51286
#	64986
#	83550
#	105668
#	124976
#	141879
#	159670
#	180876
#	200675
#	214644
#	231428
#	251867
#	257028
#
# Disc length: 3710 seconds
#
# Revision: 0
# Processed by: cddbd v1.5PL3 Copyright (c) Steve Scherf et al.
# Submitted via: CDex 1.50
#
DISCID=eb0e7c11
DTITLE=Chris Lancry - Dernier été
DYEAR=1998
DGENRE=Blues
TTITLE0=Slide and cactus - Part 1
TTITLE1=Dernier été
TTITLE2=Alligator
TTITLE3=TGV blues (revisité)
TTITLE4=Blind Willie McTell
TTITLE5=Big Sur
TTITLE6=Memphis Minnie
TTITLE7=Evangile
TTITLE8=Tortilla Flat
TTITLE9=Guignol's Band
TTITLE10=Sentier lumineux
TTITLE11=Louis
TTITLE12=Pont de l'Etoile
TTITLE13=Steak blues
TTITLE14=Folk and Jazz
TTITLE15=Slide and cactus - Part 2
TTITLE16=How Can A poor Man Stand Such Times and Live ?
EXTD=YEAR: 1998
EXTT0=
EXTT1=
EXTT2=
EXTT3=
EXTT4=
EXTT5=
EXTT6=
EXTT7=
EXTT8=
EXTT9=
EXTT10=
EXTT11=
EXTT12=
EXTT13=
EXTT14=
EXTT15=
EXTT16=
PLAYORDER=
